<svg width="75" height="18" viewBox="0 0 75 18" fill="none" xmlns="http://www.w3.org/2000/svg">
<path d="M4.69795 4.74794C3.96595 5.40794 3.59995 6.36194 3.59995 7.60994C3.59995 8.85794 3.96595 9.81194 4.69795 10.4719C5.44195 11.1319 6.30595 11.4619 7.28995 11.4619C8.27395 11.4619 9.13195 11.1319 9.86395 10.4719C10.5959 9.81194 10.9619 8.85794 10.9619 7.60994C10.9619 6.36194 10.5959 5.40794 9.86395 4.74794C9.13195 4.07594 8.27395 3.73994 7.28995 3.73994C6.30595 3.73994 5.44195 4.07594 4.69795 4.74794ZM0.647949 7.62794C0.647949 5.64794 1.28995 4.04594 2.57395 2.82194C3.86995 1.58594 5.44195 0.967942 7.28995 0.967942C9.13795 0.967942 10.7039 1.58594 11.9879 2.82194C13.2719 4.05794 13.9139 5.65994 13.9139 7.62794C13.9139 9.59594 13.2719 11.1979 11.9879 12.4339C10.7039 13.6579 9.13795 14.2699 7.28995 14.2699C5.44195 14.2699 3.86995 13.6579 2.57395 12.4339C1.28995 11.1979 0.647949 9.59594 0.647949 7.62794Z" fill="#091C3F"/>
<path d="M18.4966 8.86994V13.9999H15.7606V5.05394H18.4066V6.07994C18.6346 5.68394 18.9826 5.37794 19.4506 5.16194C19.9306 4.93394 20.4166 4.81994 20.9086 4.81994C21.9766 4.81994 22.7866 5.15594 23.3386 5.82794C23.8906 6.48794 24.1666 7.33994 24.1666 8.38394V13.9999H21.4306V8.85194C21.4306 8.38394 21.3046 8.01194 21.0526 7.73594C20.8126 7.44794 20.4526 7.30394 19.9726 7.30394C19.5286 7.30394 19.1686 7.45394 18.8926 7.75394C18.6286 8.04194 18.4966 8.41394 18.4966 8.86994Z" fill="#091C3F"/>
<path d="M25.7277 11.4619L28.0497 11.0479C28.0737 11.3839 28.1997 11.6719 28.4277 11.9119C28.6677 12.1399 29.0097 12.2539 29.4537 12.2539C29.7897 12.2539 30.0477 12.1819 30.2277 12.0379C30.4077 11.8819 30.4977 11.6959 30.4977 11.4799C30.4977 11.1199 30.2037 10.8739 29.6157 10.7419L28.5897 10.5079C27.6777 10.3159 27.0057 9.97994 26.5737 9.49994C26.1417 9.00794 25.9257 8.42594 25.9257 7.75394C25.9257 6.92594 26.2497 6.22394 26.8977 5.64794C27.5577 5.07194 28.3797 4.78394 29.3637 4.78394C30.5277 4.78394 31.3977 5.06594 31.9737 5.62994C32.5617 6.18194 32.8857 6.78794 32.9457 7.44794L30.6777 7.86194C30.6417 7.53794 30.5157 7.27394 30.2997 7.06994C30.0957 6.86594 29.7957 6.76394 29.3997 6.76394C29.1357 6.76394 28.9077 6.83594 28.7157 6.97994C28.5237 7.12394 28.4277 7.30994 28.4277 7.53794C28.4277 7.89794 28.6617 8.11994 29.1297 8.20394L30.3177 8.43794C31.2177 8.61794 31.9017 8.95994 32.3697 9.46394C32.8377 9.96794 33.0717 10.5619 33.0717 11.2459C33.0717 12.0739 32.7597 12.7879 32.1357 13.3879C31.5117 13.9759 30.6357 14.2699 29.5077 14.2699C28.8477 14.2699 28.2597 14.1739 27.7437 13.9819C27.2397 13.7899 26.8497 13.5439 26.5737 13.2439C26.3097 12.9319 26.1057 12.6259 25.9617 12.3259C25.8297 12.0259 25.7517 11.7379 25.7277 11.4619Z" fill="#091C3F"/>
<path d="M40.5582 13.9999C40.5102 13.7839 40.4862 13.4839 40.4862 13.0999C40.2702 13.4599 39.9402 13.7359 39.4962 13.9279C39.0522 14.1079 38.5842 14.1979 38.0922 14.1979C37.0362 14.1979 36.2022 13.8679 35.5902 13.2079C34.9902 12.5359 34.6902 11.7019 34.6902 10.7059V5.05394H37.4262V10.1299C37.4262 10.5859 37.5462 10.9579 37.7862 11.2459C38.0382 11.5339 38.3982 11.6779 38.8662 11.6779C39.3222 11.6779 39.6822 11.5399 39.9462 11.2639C40.2222 10.9759 40.3602 10.6039 40.3602 10.1479V5.05394H43.0962V12.3979C43.0962 12.9859 43.1262 13.5199 43.1862 13.9999H40.5582Z" fill="#091C3F"/>
<path d="M51.1908 5.05394V7.75394C50.9388 7.69394 50.6508 7.66394 50.3268 7.66394C49.7148 7.66394 49.2108 7.86194 48.8148 8.25794C48.4308 8.65394 48.2388 9.26594 48.2388 10.0939V13.9999H45.5028V5.05394H48.1488V6.25994C48.3648 5.80394 48.6948 5.47394 49.1388 5.26994C49.5828 5.06594 50.0268 4.96394 50.4708 4.96394C50.7468 4.96394 50.9868 4.99394 51.1908 5.05394Z" fill="#091C3F"/>
<path d="M55.5865 13.9999H52.8505V5.05394H55.5865V13.9999ZM53.0845 3.45194C52.7725 3.13994 52.6165 2.76194 52.6165 2.31794C52.6165 1.87394 52.7725 1.49594 53.0845 1.18394C53.3965 0.871943 53.7685 0.715942 54.2005 0.715942C54.6445 0.715942 55.0225 0.871943 55.3345 1.18394C55.6585 1.49594 55.8205 1.87394 55.8205 2.31794C55.8205 2.76194 55.6585 3.13994 55.3345 3.45194C55.0225 3.76394 54.6445 3.91994 54.2005 3.91994C53.7685 3.91994 53.3965 3.76394 53.0845 3.45194Z" fill="#091C3F"/>
<path d="M61.2593 2.44394V5.05394H63.0053V7.44794H61.2593V10.7959C61.2593 11.4199 61.5893 11.7319 62.2493 11.7319C62.4653 11.7319 62.7053 11.7019 62.9693 11.6419V13.9099C62.6333 14.0779 62.1593 14.1619 61.5473 14.1619C60.6233 14.1619 59.8913 13.9039 59.3513 13.3879C58.8233 12.8719 58.5593 12.1699 58.5593 11.2819V7.44794H56.9753V5.05394H57.4253C57.8813 5.05394 58.2233 4.92194 58.4513 4.65794C58.6913 4.38194 58.8113 4.02794 58.8113 3.59594V2.44394H61.2593Z" fill="#091C3F"/>
<path d="M68.7003 17.4379H65.8203L67.8543 12.7939L64.0923 5.05394H67.1523L69.3303 9.84194L71.3103 5.05394H74.2083L68.7003 17.4379Z" fill="#091C3F"/>
</svg>
