<svg width="131" height="30" viewBox="0 0 131 30" fill="none" xmlns="http://www.w3.org/2000/svg">
<path d="M5.248 12.256C5.248 7.52 8.64 5.376 11.808 5.376C14.944 5.376 18.336 7.52 18.336 12.256C18.336 16.992 14.944 19.104 11.808 19.104C8.64 19.104 5.248 16.992 5.248 12.256ZM0 12.288C0 19.456 5.408 24.096 11.808 24.096C18.176 24.096 23.584 19.456 23.584 12.288C23.584 5.088 18.176 0.448 11.808 0.448C5.408 0.448 0 5.088 0 12.288Z" fill="#091C3F"/>
<path d="M31.731 14.496C31.731 12.896 32.755 11.712 34.355 11.712C36.115 11.712 36.947 12.896 36.947 14.464V23.616H41.811V13.632C41.811 10.144 40.019 7.296 36.019 7.296C34.387 7.296 32.435 8.032 31.571 9.536V7.712H26.867V23.616H31.731V14.496Z" fill="#091C3F"/>
<path d="M44.5863 19.104C44.7142 20.864 46.3143 24.096 51.3063 24.096C55.5623 24.096 57.6423 21.44 57.6423 18.72C57.6423 16.384 56.0423 14.4 52.7463 13.728L50.6343 13.312C49.9303 13.184 49.3862 12.8 49.3862 12.128C49.3862 11.296 50.1862 10.752 51.1143 10.752C52.5863 10.752 53.2582 11.648 53.3862 12.704L57.4183 11.968C57.2583 10.112 55.6582 7.232 51.0503 7.232C47.4982 7.232 44.9382 9.6 44.9382 12.512C44.9382 14.752 46.2822 16.672 49.6742 17.408L51.4982 17.824C52.6823 18.08 53.0662 18.56 53.0662 19.136C53.0662 19.84 52.4583 20.512 51.2103 20.512C49.5462 20.512 48.7782 19.456 48.7142 18.368L44.5863 19.104Z" fill="#091C3F"/>
<path d="M70.9515 23.616H75.6235C75.5915 23.36 75.4635 22.208 75.4635 20.768V7.712H70.5995V16.768C70.5995 18.368 69.5755 19.488 67.9435 19.488C66.2155 19.488 65.3835 18.272 65.3835 16.736V7.712H60.5195V17.76C60.5195 21.152 62.6955 23.968 66.5675 23.968C68.1675 23.968 69.9915 23.392 70.8235 22.016C70.8235 22.432 70.8875 23.328 70.9515 23.616Z" fill="#091C3F"/>
<path d="M89.854 7.712C89.534 7.616 89.054 7.552 88.574 7.552C87.294 7.552 85.278 8.064 84.446 9.856V7.712H79.742V23.616H84.606V16.672C84.606 13.504 86.366 12.352 88.318 12.352C88.798 12.352 89.31 12.384 89.854 12.512V7.712Z" fill="#091C3F"/>
<path d="M97.6685 23.616V7.712H92.8045V23.616H97.6685ZM92.3885 2.848C92.3885 4.416 93.6685 5.696 95.2045 5.696C96.8045 5.696 98.0845 4.416 98.0845 2.848C98.0845 1.28 96.8045 0 95.2045 0C93.6685 0 92.3885 1.28 92.3885 2.848Z" fill="#091C3F"/>
<path d="M107.754 3.072H103.401V5.12C103.401 6.592 102.602 7.712 100.938 7.712H100.137V11.968H102.953V18.784C102.953 21.952 104.97 23.904 108.266 23.904C109.802 23.904 110.602 23.552 110.794 23.456V19.424C110.506 19.488 110.025 19.584 109.513 19.584C108.457 19.584 107.754 19.232 107.754 17.92V11.968H110.857V7.712H107.754V3.072Z" fill="#091C3F"/>
<path d="M120.982 29.728L130.774 7.712H125.622L122.102 16.224L118.23 7.712H112.79L119.478 21.472L115.862 29.728H120.982Z" fill="#091C3F"/>
</svg>
